<?xml version="1.0" encoding="utf-8"?>
<!-- Generator: Adobe Illustrator 19.1.0, SVG Export Plug-In . SVG Version: 6.00 Build 0)  -->
<svg version="1.1" id="Layer_1" xmlns="http://www.w3.org/2000/svg" xmlns:xlink="http://www.w3.org/1999/xlink" x="0px" y="0px"
	 viewBox="0 0 75 75" enable-background="new 0 0 75 75" xml:space="preserve">
<g>
	<circle fill="#0BA59F" cx="37.5" cy="37.5" r="29.5"/>
	<path fill="#FFFFFF" d="M33.3,45c0,1.7,0,3.5,0,5.2c0,1.5,0.6,2.1,2,2.3c3.8,0.6,7.7,0.5,11.4-0.7c1.7-0.6,2.6-1.7,2.8-3.5
		c0-0.4,0.1-0.8,0.2-1.2c0.1-0.3,0.4-0.8,0.6-0.8c0.4,0,0.9,0.2,1.1,0.4c0.7,0.7,0.5,1.6,0.3,2.4c-0.5,1.8-1,3.5-0.8,5.4
		c0.1,0.7-0.5,1.1-1.1,1c-1.7-0.2-3.4-0.4-5.2-0.5c-4.2-0.1-8.5,0-12.7,0c-2.2,0-4.4,0.1-6.6,0.1c-0.5,0-0.9,0-1-0.7
		c0-0.6,0.2-1,0.9-1.1c0.2,0,0.4,0,0.6,0c2-0.1,3-1,3.2-3.1c0.1-1.3,0.2-2.7,0.2-4.1c0-5.8,0-11.6,0-17.3c0-0.7-0.1-1.5-0.3-2.2
		c-0.3-1.4-1.1-2-2.6-2.2c-0.5,0-1,0-1.2-0.7c-0.2-0.9,0.1-1.2,1.1-1.2c4.2,0.1,8.5,0.2,12.7,0.2c3.2-0.1,6.3-0.4,9.5-0.6
		c0.4,0,0.7-0.1,1.1,0c0.6,0.1,1.1,0.5,0.9,1.1c-0.7,1.6-0.3,3.3-0.2,4.9c0,0.3,0,0.7-0.2,0.8c-0.3,0.3-0.8,0.4-1.1,0.7
		c-0.2-0.3-0.6-0.7-0.5-1c0.2-1.7-0.9-2.7-2.5-3c-3.6-0.5-7.1-0.8-10.7-0.4c-1.1,0.1-1.9,0.5-1.9,1.9c0,2.9,0,5.7-0.1,8.6
		c0,0.9,0.4,1.2,1.3,1.2c2.5-0.1,5,0,7.4,0c2.1,0,2.9-0.8,3.2-2.9c0.1-0.6,0.1-1.3,1-1.2c0.8,0.1,1,0.8,0.9,1.5
		c-0.4,2.4-0.4,4.9,0,7.3c0,0.2,0.1,0.5,0,0.6c-0.2,0.3-0.5,0.7-0.9,0.9c-0.2,0.1-0.6-0.3-0.9-0.5c-0.1-0.1-0.1-0.3-0.1-0.4
		c-0.8-2.4-1.4-2.9-3.9-3c-2.3-0.1-4.5,0-6.8,0c-0.8,0-1.3,0.3-1.3,1.2C33.2,41.8,33.2,43.4,33.3,45C33.2,45,33.2,45,33.3,45z"/>
</g>
</svg>
