<?xml version="1.0" encoding="utf-8"?>
<!-- Generator: Adobe Illustrator 19.1.0, SVG Export Plug-In . SVG Version: 6.00 Build 0)  -->
<svg version="1.1" id="Layer_1" xmlns="http://www.w3.org/2000/svg" xmlns:xlink="http://www.w3.org/1999/xlink" x="0px" y="0px"
	 viewBox="0 0 75 75" enable-background="new 0 0 75 75" xml:space="preserve">
<path fill="#0BA59F" d="M38.6,66.8c-13.3,0.7-27.7-8.7-30.1-25C6.1,25.6,17.2,10.8,33.1,8.5c16.3-2.3,31,8.7,33.4,24.7
	c2.4,16.2-8.4,28.4-18.7,31.7c0-6.4,0-12.8,0-19.3c1.6,0,3.2,0,4.8,0c1,0,1,0,1.1-1c0.2-2.1,0.5-4.2,0.7-6.2c0-0.1,0-0.1,0-0.4
	c-2.2,0-4.4,0-6.6,0c0-1.8-0.1-3.4,0-5c0-0.7,0.6-1.2,1.4-1.3c1.3-0.1,2.7-0.1,4-0.1c1.2,0,1.2,0,1.2-1.2c0-1.9,0-3.8,0-5.7
	c0-0.6-0.2-0.9-0.8-0.8c-2.4,0.1-4.9,0-7.3,0.2c-4.1,0.4-6.9,2.4-7.6,7c-0.3,1.9-0.2,3.9-0.2,5.9c0,0.3,0,0.6,0,1.1c-1,0-2,0-3,0
	c-1.7,0-1.5-0.1-1.5,1.5c0,1.8,0,3.6,0,5.4c0,0.6,0.2,0.8,0.8,0.8c1.2,0,2.4,0,3.6,0C38.6,52.7,38.6,59.7,38.6,66.8z"/>
</svg>
