<?xml version="1.0" encoding="utf-8"?>
<!-- Generator: Adobe Illustrator 19.1.0, SVG Export Plug-In . SVG Version: 6.00 Build 0)  -->
<svg version="1.1" id="Layer_1" xmlns="http://www.w3.org/2000/svg" xmlns:xlink="http://www.w3.org/1999/xlink" x="0px" y="0px"
	 viewBox="0 0 75 75" enable-background="new 0 0 75 75" xml:space="preserve">
<g>
	<circle fill="#0BA59F" cx="37.5" cy="37.5" r="29.5"/>
	<g>
		<path fill="#FFFFFF" d="M37.4,56.1c-2.9,0-5.9,0-8.8,0c-5.4-0.1-9.2-3.9-9.2-9.3c0-5.9,0-11.9,0-17.8c0-5.4,4-9.3,9.4-9.4
			c5.8,0,11.7,0,17.5,0c5.6,0,9.4,3.9,9.4,9.6c0,5.8,0,11.6,0,17.4c0,5.7-3.8,9.5-9.5,9.6C43.3,56.1,40.4,56.1,37.4,56.1z
			 M22.7,35.2c0,4,0,7.8,0,11.7c0,3.4,2.4,5.9,5.8,5.9c6,0.1,12,0.1,18,0c3.5-0.1,5.8-2.5,5.8-6.1c0-3.3,0-6.7,0-10
			c0-0.5-0.1-1-0.1-1.5c-2.2,0-4.3,0-6.4,0c1,7.2-1.7,11.9-7.1,12.2c-2.6,0.2-5-0.4-6.9-2.3c-2.9-2.8-3.2-6.2-2-9.9
			C27.4,35.2,25.2,35.2,22.7,35.2z M52.3,31.8c0-1,0-1.8,0-2.6c0-3.8-2.3-6.2-6.1-6.3c-5.8-0.1-11.6,0-17.4,0c-3,0-5.4,1.7-5.9,4.3
			c-0.3,1.4-0.1,2.9-0.1,4.6c3.2,0,6.3,0,9.4,0c0.4,0,0.7-0.3,1.1-0.4c2.8-1.5,5.6-1.5,8.5-0.1c0.4,0.2,0.8,0.5,1.2,0.5
			C46.1,31.8,49.1,31.8,52.3,31.8z M37.7,42.4c1.9,0,3.6-1.6,3.6-3.5c0-1.9-1.7-3.7-3.6-3.6c-2,0-3.6,1.7-3.5,3.7
			C34.2,40.9,35.8,42.4,37.7,42.4z"/>
		<path fill="#FFFFFF" d="M47.1,30.1c-2.4,0-2.4,0-2.4-2.6c0-2.5,0-2.5,2.6-2.5c2.5,0,2.5,0,2.5,2.8C49.7,30.1,49.7,30.1,47.1,30.1z
			"/>
	</g>
</g>
</svg>
