<?xml version="1.0" encoding="utf-8"?>
<!-- Generator: Adobe Illustrator 18.1.1, SVG Export Plug-In . SVG Version: 6.00 Build 0)  -->
<svg version="1.1" id="Layer_1" xmlns="http://www.w3.org/2000/svg" xmlns:xlink="http://www.w3.org/1999/xlink" x="0px" y="0px"
	 viewBox="0 0 125.6 125.4" enable-background="new 0 0 125.6 125.4" xml:space="preserve">
<g>
	<defs>
		<circle id="SVGID_1_" cx="62.9" cy="62.7" r="62.7"/>
	</defs>
	<clipPath id="SVGID_2_">
		<use xlink:href="#SVGID_1_"  overflow="visible"/>
	</clipPath>
	<g clip-path="url(#SVGID_2_)">
		<circle fill="#1AA492" cx="63.1" cy="63.1" r="62.7"/>
		<path fill="#FFFFFF" stroke="#FFFFFF" stroke-miterlimit="10" d="M39.3,32c0.9-0.4,1.9-0.8,3-1c1-0.3,2.1-0.4,3.1-0.4
			c1.1,0,2.1,0.1,3.1,0.4c1,0.3,1.9,0.8,2.8,1.5c1.7,1.4,2.9,3.1,3.5,5.2c0.6,2.1,0.6,4.2,0,6.3c-0.6,2.1-1.6,4-3,5.8
			c-1.3,1.8-2.8,3.3-4.4,4.7C45.9,55.8,44,57,42,58.1c-2.1,1.1-4.2,1.5-6.3,1.2c-1.5-0.2-2.7-0.7-3.7-1.7c-0.5-0.5-0.9-1.2-1.3-1.9
			c0-0.1-0.1-0.2-0.1-0.2c0-0.1,0-0.2,0-0.3c0.1-0.1,0.2-0.2,0.3-0.1c0.1,0,0.2,0.1,0.3,0.2c0.5,1.1,1.1,2,2,2.5
			c0.8,0.5,1.8,0.9,2.7,1c1,0.1,2,0,3-0.2c1-0.2,2-0.6,2.9-1c2-0.9,3.8-2,5.4-3.5c1.6-1.4,3.1-3.1,4.3-4.8c0.6-0.8,1.1-1.7,1.6-2.7
			c0.5-1,0.9-2,1.1-3c0.3-1,0.4-2.1,0.4-3.1c0-1.1-0.2-2.1-0.7-3.1c-0.4-0.9-0.9-1.8-1.5-2.7c-0.6-0.9-1.3-1.6-2.2-2.1
			c-1.8-1.1-3.8-1.5-6-1.2c-2.2,0.3-4.2,0.9-6.1,2.1c-1.9,1.1-3.7,2.4-5.3,3.8c-0.8,0.8-1.6,1.5-2.2,2.3c-0.7,0.8-1.3,1.7-2,2.7
			c-0.5,0.8-0.9,1.7-1.3,2.5c-0.4,0.9-0.8,1.8-1.1,2.7c-0.7,2-1.4,4.1-1.9,6.1c-0.5,2.1-1,4.2-1.5,6.3s-0.9,4.2-1.4,6.3
			c-0.5,2.1-1.1,4.2-1.8,6.2c-0.3,1-0.6,2-1,3c-0.4,1-0.7,2-1.1,2.9l0.8,0.5c2,1.2,3.8,2.5,5.6,3.9c1.8,1.4,3.6,2.9,5.3,4.3
			c1.7,1.5,3.5,2.9,5.2,4.4c1.7,1.4,3.5,2.8,5.3,4.2c0.8,0.6,1.7,1.2,2.7,1.8c1,0.6,1.9,1.2,3,1.6c1,0.5,2.1,0.8,3.1,1
			c1.1,0.2,2.1,0.2,3.1-0.1c1.2-0.3,2.2-1,3.1-2.1c0.9-1.1,1.5-2.2,1.8-3.4c0.1-0.3,0.1-0.6,0.2-1c0.1-0.3,0.1-0.6,0.1-1
			c0-0.1,0-0.2,0-0.3c0-0.1,0-0.2,0.1-0.3c0.1-0.1,0.3-0.2,0.4-0.1c0.2,0.1,0.2,0.2,0.2,0.3c-0.1,1.4-0.4,2.7-1.1,3.9
			c-0.4,0.9-0.9,1.8-1.6,2.5c-0.6,0.8-1.4,1.4-2.3,1.8c-0.9,0.5-1.9,0.7-2.9,0.7c-1,0-2.1-0.2-3.1-0.4c-2.1-0.5-4.1-1.4-6-2.6
			c-1.9-1.2-3.8-2.4-5.5-3.8c-1.9-1.3-3.7-2.8-5.4-4.3c-1.7-1.5-3.5-3-5.2-4.6c-0.9-0.8-1.8-1.6-2.6-2.3c-0.9-0.7-1.8-1.5-2.7-2.2
			c-0.7-0.5-1.4-1-2.1-1.6c-0.4,0.9-0.8,1.8-1.3,2.8c-0.4,1-0.9,2-1.5,3c-0.5,1-1.2,2-1.8,2.9c-0.6,0.8-1.2,1.6-2,2.3
			c-0.7,0.8-1.5,1.4-2.4,1.8c-0.9,0.5-1.8,0.7-2.8,0.6c-1,0-1.9-0.4-2.7-1.1c-0.8-0.7-1.3-1.6-1.4-2.7c-0.1-1.1-0.1-2.1,0-3.1
			c0.3-1.8,1-3.5,2.1-5c1.1-1.5,2.5-2.7,4.1-3.4c1-0.4,2-0.7,3-0.7c1-0.1,2,0,3.1,0.2c0.8,0.1,1.6,0.4,2.4,0.7l1.3-4.3
			c1.2-3.8,2.1-7.7,2.9-11.6c0.8-3.9,1.8-7.7,3.1-11.5c0.6-1.8,1.3-3.5,2.1-5.3c0.8-1.7,1.8-3.3,3.1-4.7c1.4-1.7,3-3.3,4.8-4.6
			C35.4,34,37.3,32.9,39.3,32z M12.9,85.6c1.2-2.2,2.2-4.7,3.1-7.3c-0.7-0.3-1.4-0.6-2-0.7c-1.8-0.4-3.4-0.4-5-0.1
			c-1.1,0.3-2,0.8-2.8,1.4c-0.8,0.6-1.5,1.3-2.2,2.2c-1,1.3-1.6,2.7-1.9,4.3c-0.2,1-0.3,2-0.1,3.1c0.1,1.1,0.6,2,1.5,2.7
			c0.9,0.7,1.8,0.9,2.9,0.7c1-0.2,1.9-0.6,2.7-1.3c0.8-0.7,1.5-1.4,2.1-2.3C11.8,87.5,12.4,86.6,12.9,85.6z"/>
		<g>
			<path fill="#FFFFFF" d="M4,57v-3H3.3v-0.6H4v-1.2h0.7v1.2h0.9V54H4.8v2.8c0,0.3,0.2,0.6,0.5,0.6c0.2,0,0.4-0.1,0.5-0.2l0.2,0.5
				c-0.2,0.2-0.4,0.3-0.8,0.3C4.4,58.1,4,57.7,4,57z"/>
			<path fill="#FFFFFF" d="M10.4,58v-3c0-0.8-0.4-1-1-1c-0.5,0-1.1,0.3-1.3,0.7V58H7.3v-6.3H8v2.4c0.3-0.4,0.9-0.8,1.6-0.8
				c1,0,1.5,0.5,1.5,1.5V58H10.4z"/>
			<path fill="#FFFFFF" d="M12.9,55.7c0-1.3,0.9-2.4,2.2-2.4c1.4,0,2.2,1.1,2.2,2.4v0.2h-3.7c0.1,0.9,0.7,1.6,1.6,1.6
				c0.5,0,1-0.2,1.4-0.6l0.3,0.5c-0.5,0.5-1.1,0.7-1.8,0.7C13.9,58.1,12.9,57.1,12.9,55.7z M15.2,53.9c-1,0-1.5,0.8-1.5,1.5h3
				C16.7,54.7,16.2,53.9,15.2,53.9z"/>
		</g>
		<g>
			<path fill="#FFFFFF" d="M70.4,90.2c0,0.6-0.1,1.3-0.2,1.9c-0.2,0.6-0.4,1.3-0.5,1.9l-0.4,1.6c-0.1,0.4-0.2,0.9-0.3,1.4
				c-0.1,0.5-0.1,0.9,0,1.4c0,0.3,0.1,0.4,0.3,0.5c0.2,0,0.3,0,0.5-0.1c0.2-0.1,0.4-0.2,0.5-0.4c0.2-0.2,0.3-0.3,0.4-0.4
				c0.3-0.3,0.5-0.6,0.7-1c0.2-0.3,0.4-0.7,0.5-1.1c-0.1-0.1-0.2-0.2-0.2-0.3c-0.3-0.3-0.4-0.7-0.5-1.1c-0.1-0.4-0.1-0.8-0.1-1.2
				c0-0.4,0.1-0.8,0.1-1.3c0.1-0.4,0.2-0.8,0.5-1.2c0.1-0.1,0.2-0.3,0.3-0.4c0.1-0.2,0.3-0.3,0.5-0.4c0.2-0.1,0.4-0.2,0.5-0.2
				c0.2,0,0.4,0,0.5,0.2c0.1,0.1,0.2,0.3,0.2,0.5c0,0.2,0,0.4,0,0.5c0,0.4-0.1,0.8-0.2,1.2c-0.1,0.6-0.3,1.2-0.5,1.8
				c-0.2,0.6-0.4,1.1-0.7,1.7l0,0c0.2,0.2,0.4,0.2,0.6,0.2c0.2,0,0.4-0.1,0.6-0.3c0.2-0.1,0.3-0.2,0.4-0.4c0.1-0.2,0.2-0.3,0.3-0.5
				c0,0,0-0.1,0.1-0.2c0-0.1,0.1-0.1,0.1-0.2c0-0.1,0.1-0.1,0.1-0.1c0.1,0,0.1,0,0.2,0.1c0,0.1,0,0.1,0,0.2c0,0.1-0.1,0.2-0.1,0.2
				c-0.1,0.2-0.2,0.4-0.3,0.6c-0.1,0.2-0.3,0.3-0.4,0.5c-0.3,0.2-0.6,0.4-0.9,0.4c-0.3,0-0.6,0-0.9-0.1c-0.1,0.2-0.2,0.4-0.3,0.6
				c-0.1,0.2-0.2,0.4-0.3,0.6c-0.2,0.3-0.4,0.7-0.6,1c-0.2,0.4-0.5,0.7-0.9,0.9c-0.2,0.1-0.4,0.2-0.6,0.3c-0.2,0-0.4,0-0.6-0.1
				c-0.2-0.1-0.3-0.2-0.5-0.3S68,98.8,68,98.6c-0.2-0.4-0.2-0.8-0.2-1.2c0-0.4,0-0.8,0-1.2c0-0.3,0-0.5,0.1-0.9
				c-0.2,0.5-0.4,1-0.7,1.6c-0.2,0.5-0.5,1-0.8,1.5c-0.1,0.2-0.2,0.3-0.3,0.5c-0.1,0.2-0.3,0.4-0.4,0.5c-0.2,0.2-0.3,0.3-0.5,0.5
				c-0.2,0.1-0.4,0.2-0.6,0.3c-0.2,0-0.4,0-0.5,0c-0.2-0.1-0.3-0.1-0.4-0.3c-0.1-0.1-0.2-0.2-0.3-0.4c-0.1-0.2-0.1-0.3-0.2-0.5
				c-0.1-0.4-0.1-0.8-0.1-1.3c0-0.4,0.1-0.8,0.2-1.3c0.1-0.5,0.2-0.9,0.3-1.4c0.1-0.5,0.3-0.9,0.5-1.3c0.2-0.4,0.3-0.9,0.5-1.3
				c0.2-0.4,0.4-0.9,0.6-1.3c0.1-0.1,0.1-0.2,0.2-0.3c0.1-0.1,0.1-0.2,0.2-0.3c0.1-0.1,0.3-0.2,0.5-0.3c0.2-0.1,0.3,0,0.4,0.2
				c0,0.1,0,0.2,0,0.4c0,0.1-0.1,0.3-0.1,0.4c-0.1,0.4-0.2,0.8-0.3,1.1c-0.1,0.2-0.2,0.5-0.2,0.7c-0.1,0.2-0.1,0.5-0.2,0.7
				c-0.2,0.6-0.4,1.3-0.6,1.9c-0.2,0.6-0.4,1.2-0.5,1.9c0,0.1-0.1,0.2-0.1,0.4c-0.1,0.2-0.1,0.4-0.2,0.6c0,0.2-0.1,0.4,0,0.6
				c0,0.2,0.1,0.3,0.2,0.3c0.2,0,0.4,0,0.5-0.1c0.2-0.1,0.3-0.2,0.4-0.4s0.2-0.3,0.4-0.5c0.1-0.2,0.2-0.3,0.3-0.5
				c0.4-0.7,0.8-1.5,1.1-2.2c0.3-0.7,0.6-1.5,0.9-2.3l0.1-0.3c0.1-0.4,0.2-0.8,0.3-1.2s0.3-0.8,0.5-1.1c0.1-0.2,0.2-0.4,0.3-0.5
				c0.1-0.2,0.2-0.4,0.3-0.5c0.1-0.1,0.1-0.1,0.2-0.1c0.1,0,0.2,0,0.3,0c0.1,0,0.2,0.1,0.2,0.1C70.4,90.1,70.4,90.1,70.4,90.2z
				 M72.9,92.7c0.1-0.2,0.1-0.4,0.2-0.7c0-0.2,0.1-0.5,0.1-0.7c0-0.1,0-0.2,0-0.3c0-0.1,0-0.2,0-0.4c0-0.1,0-0.3,0-0.4
				c0-0.1-0.1-0.2-0.2-0.3c-0.1,0-0.1-0.1-0.2,0c-0.1,0-0.1,0-0.2,0.1c-0.1,0-0.1,0.1-0.2,0.1c-0.1,0.1-0.1,0.1-0.1,0.1
				c-0.1,0.2-0.2,0.4-0.3,0.7c-0.1,0.2-0.1,0.5-0.1,0.7c-0.1,0.5-0.1,0.9-0.2,1.4c0,0.5,0,0.9,0.1,1.4c0,0.1,0,0.2,0.1,0.4
				c0,0.1,0.1,0.2,0.1,0.4C72.4,94.4,72.7,93.6,72.9,92.7z"/>
			<path fill="#FFFFFF" d="M83.8,93.6c-0.2,0.4-0.3,0.8-0.5,1.2c-0.2,0.4-0.4,0.7-0.6,1.1c-0.2,0.3-0.5,0.7-0.8,1
				c-0.3,0.3-0.6,0.6-1,0.8c-0.4,0.2-0.8,0.4-1.2,0.5c-0.4,0.1-0.8,0.2-1.3,0.2c-0.5,0-0.9,0-1.2-0.2c-0.4-0.2-0.7-0.5-0.9-0.8
				c-0.3-0.4-0.5-0.8-0.6-1.2s-0.2-0.9-0.2-1.4c0-0.5,0.1-0.9,0.2-1.4c0.1-0.5,0.3-0.9,0.4-1.3c0.2-0.4,0.4-0.7,0.6-1.1
				c0.2-0.4,0.5-0.7,0.9-1c0.3-0.3,0.7-0.6,1.1-0.8c0.4-0.2,0.8-0.3,1.3-0.4c0.4,0,0.8,0,1.1,0.2c0.3,0.2,0.6,0.4,0.8,0.7
				c0.2,0.3,0.4,0.6,0.4,1c0.1,0.4,0.1,0.7,0,1c-0.1,0.4-0.2,0.7-0.3,1.1c-0.2,0.4-0.4,0.7-0.6,1c-0.3,0.3-0.5,0.5-0.9,0.8
				c-0.3,0.2-0.7,0.3-1.1,0.4c-0.4,0.1-0.8,0.1-1.2-0.1c-0.4-0.1-0.7-0.3-1-0.6c-0.1,0.4-0.1,0.7-0.1,1.1c0,0.3,0,0.7,0,1.1
				c0,0.2,0.1,0.4,0.1,0.6c0,0.2,0.1,0.4,0.2,0.5c0.1,0.2,0.2,0.3,0.4,0.4c0.2,0.1,0.3,0.2,0.6,0.2c0.4,0,0.9,0,1.3-0.2
				c0.4-0.2,0.8-0.4,1.2-0.6c0.4-0.3,0.7-0.6,1-0.9c0.3-0.3,0.5-0.7,0.7-1c0.2-0.3,0.3-0.5,0.4-0.8c0.1-0.3,0.2-0.6,0.3-0.8
				c0-0.1,0.1-0.2,0.1-0.3c0.1-0.1,0.2-0.1,0.3-0.1c0.1,0,0.1,0.1,0.1,0.1C83.9,93.4,83.8,93.5,83.8,93.6z M79,94.3
				c0.4-0.1,0.8-0.3,1.1-0.7c0.3-0.3,0.5-0.7,0.7-1c0.1-0.2,0.2-0.4,0.2-0.6c0.1-0.2,0.1-0.4,0.2-0.6c0.1-0.2,0.1-0.4,0.2-0.6
				c0-0.2,0.1-0.4,0-0.6c0-0.3-0.2-0.6-0.4-0.7c-0.2-0.2-0.6-0.2-0.9-0.2c-0.2,0-0.4,0.1-0.6,0.3c-0.2,0.1-0.3,0.3-0.5,0.4
				c-0.1,0.2-0.3,0.4-0.4,0.5c-0.1,0.2-0.2,0.4-0.3,0.5c-0.4,0.8-0.7,1.7-1,2.6l0,0.1c0.1,0.2,0.4,0.4,0.7,0.6
				C78.4,94.3,78.7,94.4,79,94.3z"/>
			<path fill="#FFFFFF" d="M88.8,93.1c-0.2,0.4-0.4,0.9-0.5,1.3c-0.2,0.4-0.4,0.9-0.6,1.3c-0.1,0.2-0.2,0.4-0.3,0.5
				c-0.1,0.2-0.3,0.4-0.4,0.5c-0.1,0.2-0.3,0.3-0.5,0.5c-0.2,0.1-0.3,0.3-0.5,0.4c-0.2,0.1-0.4,0.1-0.5,0c-0.2-0.1-0.3-0.2-0.4-0.3
				c-0.1-0.2-0.2-0.3-0.2-0.5c-0.1-0.2-0.1-0.4-0.1-0.5c0-0.4-0.1-0.9,0-1.3c0-0.4,0.1-0.9,0.1-1.3c0.2-1.5,0.4-3.1,0.6-4.6
				c0.2-1.5,0.5-3,0.9-4.5c0.2-0.7,0.4-1.4,0.6-2.1c0.2-0.7,0.5-1.4,0.8-2c0.1-0.2,0.2-0.4,0.3-0.6c0.1-0.2,0.3-0.4,0.4-0.6
				c0.2-0.2,0.3-0.3,0.5-0.5c0.2-0.1,0.4-0.3,0.6-0.3c0.2-0.1,0.3-0.1,0.5-0.1c0.2,0,0.3,0.1,0.4,0.2c0.1,0.2,0.2,0.4,0.2,0.6
				c0,0.2,0,0.5-0.1,0.6c-0.2,0.9-0.4,1.8-0.8,2.7c-0.4,0.9-0.7,1.7-1.1,2.6c-0.3,0.7-0.6,1.4-0.9,2c-0.3,0.7-0.6,1.3-0.9,2
				c-0.1,0.6-0.2,1.1-0.4,1.7c-0.1,0.6-0.2,1.1-0.3,1.7l-0.2,1.3c-0.1,0.4-0.2,0.9-0.3,1.4c-0.1,0.5-0.1,0.9-0.1,1.4l0,0.1
				c0,0,0,0.1,0.1,0.2c0,0.1,0,0.1,0.1,0.2c0,0,0,0.1,0,0c0,0,0.1,0,0.1,0c0.1,0,0.1,0,0.2-0.1c0.1,0,0.1-0.1,0.2-0.1
				c0.1,0,0.1-0.1,0.1-0.1c0.3-0.2,0.5-0.4,0.6-0.6c0.2-0.3,0.3-0.5,0.5-0.8c0.3-0.5,0.6-1.1,0.8-1.7l0.1-0.4c0-0.1,0.1-0.1,0.1-0.2
				c0-0.1,0.1-0.2,0.1-0.2c0.1-0.1,0.2-0.1,0.2,0C88.8,93,88.8,93,88.8,93.1z M88.6,84.6c0.2-0.4,0.3-0.9,0.5-1.3
				c0.2-0.4,0.3-0.9,0.5-1.3c0.1-0.4,0.3-0.8,0.4-1.3c0.1-0.5,0.2-0.9,0.1-1.3c0,0,0-0.1,0-0.2c0-0.1-0.1-0.1-0.2-0.1
				c-0.1,0-0.2,0.1-0.2,0.1c-0.1,0.1-0.1,0.1-0.2,0.2c-0.1,0.2-0.2,0.4-0.3,0.7c-0.1,0.2-0.1,0.5-0.2,0.7c-0.1,0.4-0.2,0.9-0.4,1.3
				c-0.1,0.4-0.3,0.9-0.4,1.3c-0.2,0.8-0.4,1.6-0.6,2.3c-0.2,0.8-0.4,1.6-0.5,2.3c0,0,0,0.1,0,0.1c0,0,0,0.1,0,0.1
				C87.6,87,88.1,85.8,88.6,84.6z"/>
			<path fill="#FFFFFF" d="M93.8,92.6c-0.2,0.4-0.4,0.9-0.5,1.3c-0.2,0.4-0.4,0.9-0.6,1.3c-0.1,0.2-0.2,0.4-0.3,0.5
				c-0.1,0.2-0.3,0.4-0.4,0.5c-0.1,0.2-0.3,0.3-0.5,0.5c-0.2,0.1-0.3,0.3-0.5,0.4c-0.2,0.1-0.4,0.1-0.5,0c-0.2-0.1-0.3-0.2-0.4-0.3
				c-0.1-0.2-0.2-0.3-0.2-0.5c-0.1-0.2-0.1-0.4-0.1-0.5c0-0.4-0.1-0.9,0-1.3c0-0.4,0.1-0.9,0.1-1.3c0.2-1.5,0.4-3.1,0.6-4.6
				c0.2-1.5,0.5-3,0.9-4.5c0.2-0.7,0.4-1.4,0.6-2.1c0.2-0.7,0.5-1.4,0.8-2c0.1-0.2,0.2-0.4,0.3-0.6c0.1-0.2,0.3-0.4,0.4-0.6
				c0.2-0.2,0.3-0.3,0.5-0.5c0.2-0.1,0.4-0.3,0.6-0.3c0.2-0.1,0.3-0.1,0.5-0.1c0.2,0,0.3,0.1,0.4,0.2c0.1,0.2,0.2,0.4,0.2,0.6
				c0,0.2,0,0.5-0.1,0.6c-0.2,0.9-0.4,1.8-0.8,2.7c-0.4,0.9-0.7,1.7-1.1,2.6c-0.3,0.7-0.6,1.4-0.9,2c-0.3,0.7-0.6,1.3-0.9,2
				c-0.1,0.6-0.2,1.1-0.4,1.7c-0.1,0.6-0.2,1.1-0.3,1.7l-0.2,1.3c-0.1,0.4-0.2,0.9-0.3,1.4c-0.1,0.5-0.1,0.9-0.1,1.4l0,0.1
				c0,0,0,0.1,0.1,0.2c0,0.1,0,0.1,0.1,0.2c0,0,0,0.1,0,0c0,0,0.1,0,0.1,0c0.1,0,0.1,0,0.2-0.1c0.1,0,0.1-0.1,0.2-0.1
				c0.1,0,0.1-0.1,0.1-0.1c0.3-0.2,0.5-0.4,0.6-0.6c0.2-0.3,0.3-0.5,0.5-0.8c0.3-0.5,0.6-1.1,0.8-1.7l0.1-0.4c0-0.1,0.1-0.1,0.1-0.2
				c0-0.1,0.1-0.2,0.1-0.2c0.1-0.1,0.2-0.1,0.2,0C93.8,92.4,93.8,92.5,93.8,92.6z M93.6,84.1c0.2-0.4,0.3-0.9,0.5-1.3
				c0.2-0.4,0.3-0.9,0.5-1.3c0.1-0.4,0.3-0.8,0.4-1.3c0.1-0.5,0.2-0.9,0.1-1.3c0,0,0-0.1,0-0.2c0-0.1-0.1-0.1-0.2-0.1
				c-0.1,0-0.2,0.1-0.2,0.1c-0.1,0.1-0.1,0.1-0.2,0.2c-0.1,0.2-0.2,0.4-0.3,0.7c-0.1,0.2-0.1,0.5-0.2,0.7c-0.1,0.4-0.2,0.9-0.4,1.3
				c-0.1,0.4-0.3,0.9-0.4,1.3c-0.2,0.8-0.4,1.6-0.6,2.3c-0.2,0.8-0.4,1.6-0.5,2.3c0,0,0,0.1,0,0.1c0,0,0,0.1,0,0.1
				C92.6,86.4,93.1,85.2,93.6,84.1z"/>
		</g>
		<path fill="#FFFFFF" d="M50.1,71.3c-0.3,0.9-0.7,1.9-1,2.9c-0.4,1-0.8,1.9-1.2,2.8c-0.5,0.9-1,1.8-1.5,2.6c-0.6,0.8-1.2,1.6-2,2.3
			c-0.3,0.3-0.6,0.5-0.9,0.7c-0.3,0.2-0.7,0.3-1,0.4c-0.3,0.1-0.7,0.1-1-0.1c-0.3-0.1-0.7-0.3-1-0.7c-0.7-0.7-1.1-1.5-1.4-2.5
			c-0.2-1-0.4-1.9-0.5-2.8c-0.2-2.1-0.1-4.3,0.2-6.5c0.3-2.2,0.7-4.3,1.3-6.4c0-0.2,0.1-0.6,0.2-1.1c0.1-0.5,0.3-1,0.4-1.4
			c0.2-0.5,0.4-0.8,0.7-1c0.3-0.2,0.7-0.2,1.1,0.2c0.2,0.1,0.3,0.3,0.3,0.5c0.1,0.2,0.1,0.4,0.1,0.6c0,0.2,0,0.5,0,0.7
			c0,0.2,0,0.4,0,0.6c0,0.5-0.1,1.1-0.1,1.6c0,0.5-0.1,1.1-0.1,1.6l-0.5,6.3L41.9,77c0,0.4,0,0.8-0.1,1.2c0,0.4,0,0.8,0,1.2
			c0,0.3,0,0.7,0,1.1c0,0.4,0.1,0.7,0.3,1c0.1,0.2,0.3,0.3,0.5,0.4c0.2,0,0.4,0,0.6-0.1c0.2-0.1,0.4-0.2,0.6-0.3
			c0.2-0.1,0.4-0.2,0.5-0.4c0.5-0.5,0.9-1.1,1.3-1.7c0.4-0.6,0.7-1.2,1.1-1.9c0.4-0.7,0.7-1.4,1-2.1c0.3-0.7,0.6-1.5,0.9-2.2
			l0.8-2.1c0.1-0.3,0.3-0.4,0.5-0.3C50.2,70.8,50.2,71,50.1,71.3z"/>
		<path fill="#FFFFFF" d="M55,59c0.2,1.6,0.2,3.2-0.1,4.8c-0.3,1.6-0.5,3.2-0.8,4.8c-0.1,0.7-0.2,1.5-0.3,2.2
			c-0.1,0.7-0.2,1.5-0.2,2.2c-0.1,0.5-0.1,1-0.1,1.6c0,0.5,0,1,0,1.6c0,0.4,0.1,0.8,0.1,1.4c0.1,0.5,0.3,0.9,0.6,1.2
			c0.2,0.2,0.5,0.3,0.8,0.2c0.3-0.1,0.6-0.2,0.8-0.4c0.3-0.2,0.5-0.5,0.7-0.7c0.2-0.3,0.4-0.5,0.5-0.7c0.6-0.8,1.1-1.7,1.6-2.7
			c0.4-1,0.8-1.9,1.2-2.9l0,0c-0.7-0.7-1.1-1.5-1.4-2.4c-0.3-0.9-0.5-1.8-0.6-2.8c-0.1-1-0.1-2-0.1-3c0.1-1,0.3-2,0.6-3
			c0.1-0.3,0.3-0.7,0.5-1c0.2-0.4,0.4-0.7,0.7-1c0.3-0.3,0.6-0.6,0.9-0.8c0.3-0.2,0.7-0.3,1.1-0.3c0.5,0,0.9,0.2,1.1,0.6
			c0.2,0.4,0.4,0.8,0.4,1.3c0.1,0.5,0.1,1,0.1,1.5c0,0.5-0.1,0.9-0.1,1.2c-0.1,1.5-0.4,3-0.8,4.5c-0.4,1.5-0.8,3-1.4,4.4
			c0.2,0.4,0.5,0.6,0.9,0.8c0.4,0.1,0.8,0.1,1.3-0.2c0.4-0.2,0.7-0.5,1-0.8c0.3-0.4,0.5-0.7,0.6-1.1c0-0.1,0.1-0.2,0.1-0.4
			c0-0.2,0.1-0.4,0.1-0.5c0.1-0.2,0.1-0.4,0.2-0.5c0.1-0.2,0.2-0.3,0.3-0.3c0.3-0.1,0.4,0,0.5,0.2c0,0.2,0,0.4,0,0.6
			c-0.2,0.9-0.6,1.7-1.1,2.5c-0.5,0.7-1.2,1.2-2,1.5c-0.8,0.3-1.6,0.2-2.3-0.3l-0.8,1.8c-0.1,0.4-0.3,0.8-0.6,1.3
			c-0.2,0.5-0.5,1.1-0.8,1.6c-0.3,0.6-0.6,1.1-1,1.7c-0.4,0.5-0.8,1-1.2,1.3c-0.4,0.3-0.9,0.6-1.4,0.6c-0.5,0.1-1,0-1.6-0.4
			c-0.4-0.3-0.7-0.6-1-1c-0.3-0.4-0.5-0.8-0.6-1.3c-0.2-0.5-0.3-1-0.4-1.5s-0.1-1-0.2-1.4c-0.1-1-0.2-2.1-0.2-3.2
			c0-1.1,0-2.1,0.1-3.2c0.1-1.1,0.2-2.1,0.3-3.2c0.2-1.1,0.4-2.1,0.6-3.2c0.3-1.1,0.7-2.2,1.2-3.1c0.1-0.2,0.2-0.4,0.4-0.6
			c0.1-0.2,0.3-0.3,0.6-0.3c0.3,0,0.5,0.1,0.7,0.2C54.9,58.6,55,58.8,55,59z M61.7,65.2c0.1-0.5,0.3-1.1,0.4-1.6
			c0.1-0.5,0.2-1.1,0.2-1.6c0.1-0.5,0.1-1.1,0.2-1.7c0-0.6,0-1.1-0.2-1.7c-0.1-0.3-0.3-0.5-0.5-0.5c-0.2,0-0.5,0.1-0.7,0.3
			c-0.4,0.4-0.6,0.8-0.8,1.4c-0.1,0.5-0.2,1.1-0.3,1.5c-0.1,1.1-0.2,2.1-0.2,3.2c0,1.1,0.1,2.1,0.3,3.2c0.1,0.3,0.1,0.6,0.2,1
			c0.1,0.3,0.2,0.7,0.3,1c0.2-0.8,0.4-1.5,0.6-2.3C61.3,66.7,61.5,66,61.7,65.2z"/>
		<path fill="#FFFFFF" d="M78.3,66.1C78,67,77.6,68,77.3,69c-0.4,1-0.8,1.9-1.2,2.8c-0.5,0.9-1,1.8-1.5,2.6c-0.6,0.8-1.2,1.6-2,2.3
			c-0.3,0.3-0.6,0.5-0.9,0.7c-0.3,0.2-0.7,0.3-1,0.4c-0.3,0.1-0.7,0.1-1-0.1c-0.3-0.1-0.7-0.3-1-0.7c-0.7-0.7-1.1-1.5-1.4-2.5
			c-0.2-1-0.4-1.9-0.5-2.8c-0.2-2.1-0.1-4.3,0.2-6.5c0.3-2.2,0.7-4.3,1.3-6.4c0-0.2,0.1-0.6,0.2-1.1c0.1-0.5,0.3-1,0.4-1.4
			c0.2-0.5,0.4-0.8,0.7-1c0.3-0.2,0.7-0.2,1.1,0.2c0.2,0.1,0.3,0.3,0.3,0.5c0.1,0.2,0.1,0.4,0.1,0.6c0,0.2,0,0.5,0,0.7
			c0,0.2,0,0.4,0,0.6c0,0.5-0.1,1.1-0.1,1.6c0,0.5-0.1,1.1-0.1,1.6l-0.5,6.3L70,71.8c0,0.4,0,0.8-0.1,1.2c0,0.4,0,0.8,0,1.2
			c0,0.3,0,0.7,0,1.1c0,0.4,0.1,0.7,0.3,1c0.1,0.2,0.3,0.3,0.5,0.4c0.2,0,0.4,0,0.6-0.1c0.2-0.1,0.4-0.2,0.6-0.3
			c0.2-0.1,0.4-0.2,0.5-0.4c0.5-0.5,0.9-1.1,1.3-1.7c0.4-0.6,0.7-1.2,1.1-1.9c0.4-0.7,0.7-1.4,1-2.1c0.3-0.7,0.6-1.5,0.9-2.2
			l0.8-2.1c0.1-0.3,0.3-0.4,0.5-0.3C78.3,65.6,78.4,65.8,78.3,66.1z M70.6,51.1c-0.6,0.1-1,0-1.4-0.3c-0.4-0.3-0.6-0.7-0.7-1.1
			c-0.1-0.4,0-0.9,0.2-1.3c0.2-0.4,0.6-0.7,1.2-0.8c0.6-0.1,1,0,1.4,0.4c0.4,0.3,0.6,0.7,0.7,1.2s0,0.9-0.2,1.3
			C71.6,50.7,71.2,51,70.6,51.1z"/>
		<path fill="#FFFFFF" d="M78.2,75.2l1.6-20.4c0-0.3,0.1-0.6,0.1-1c0.1-0.4,0.1-0.7,0.3-1c0.1-0.3,0.3-0.5,0.6-0.7
			c0.3-0.2,0.6-0.2,1.1-0.1c0.4,0.1,0.7,0.3,0.9,0.5c0.2,0.2,0.3,0.5,0.3,0.8c0.1,0.3,0,0.6,0,1c-0.1,0.4-0.1,0.7-0.1,1l-1.7,11.9
			l-0.2,1.5c0.3-1,0.6-1.9,1-2.9c0.3-1,0.7-1.9,1.1-2.9c0.4-1,0.8-2.1,1.2-3c0.4-1,0.9-2,1.4-2.9c0.2-0.4,0.5-0.9,0.8-1.3
			c0.3-0.4,0.5-0.8,0.8-1.2c0.3-0.4,0.6-0.9,1-1.3c0.3-0.4,0.7-0.8,1.2-1.1c0.4-0.2,0.8-0.4,1.2-0.4c0.4,0,0.8,0.1,1.2,0.4
			c0.4,0.3,0.6,0.7,0.8,1.2c0.2,0.5,0.3,0.9,0.3,1.4c0.1,1,0.2,2,0.1,3c-0.1,1-0.2,2-0.4,3c-0.2,1.1-0.4,2.2-0.6,3.2
			c-0.2,1-0.5,2.1-0.7,3.2c-0.1,0.5-0.2,1-0.3,1.5c-0.1,0.5-0.2,1-0.2,1.5c0,0.2-0.1,0.4-0.1,0.6c0,0.2,0,0.5,0,0.7
			c0,0.2,0.1,0.4,0.2,0.6c0.1,0.2,0.3,0.3,0.5,0.3c0.6,0.1,1.1,0,1.7-0.4c0.5-0.4,1-0.8,1.3-1.2c0.6-0.7,1.2-1.6,1.6-2.5
			c0.4-0.9,0.8-1.8,1.1-2.8c0.2-0.4,0.3-0.9,0.5-1.4c0.1-0.5,0.3-0.9,0.4-1.4c0.1-0.1,0.1-0.3,0.1-0.5c0-0.2,0.2-0.3,0.4-0.3
			c0.2,0,0.3,0,0.4,0.2c0.1,0.1,0.1,0.3,0.1,0.5c0,0.2-0.1,0.4-0.2,0.6c-0.1,0.2-0.2,0.4-0.2,0.6c-0.2,0.5-0.3,1-0.5,1.5
			c-0.2,0.5-0.4,1-0.6,1.5c-0.4,1-0.8,1.9-1.3,2.8c-0.5,0.9-1.1,1.8-1.8,2.5c-0.4,0.5-0.8,0.9-1.3,1.2c-0.5,0.3-1,0.5-1.6,0.6
			c-0.5,0.1-1,0-1.4-0.1c-0.4-0.2-0.7-0.4-1-0.8c-0.3-0.3-0.5-0.7-0.7-1.1c-0.2-0.4-0.3-0.9-0.4-1.3c-0.2-1-0.3-2-0.2-3.1
			c0.1-1,0.2-2,0.3-3.1c0.2-1.3,0.4-2.6,0.7-3.9c0.3-1.3,0.6-2.6,0.9-3.9c0.1-0.4,0.2-0.8,0.3-1.2c0.1-0.4,0.2-0.9,0.3-1.3
			c0-0.3,0-0.5,0-0.7c0-0.2-0.2-0.3-0.6-0.2c-0.4,0.1-0.8,0.3-1.1,0.5c-0.3,0.3-0.6,0.6-0.9,0.9c-0.3,0.4-0.5,0.7-0.7,1.1
			c-0.2,0.4-0.4,0.7-0.6,1.1c-0.9,1.7-1.7,3.4-2.4,5.1c-0.7,1.8-1.3,3.5-1.9,5.3c-0.3,0.9-0.6,1.8-0.9,2.7c-0.3,0.9-0.5,1.8-0.8,2.7
			c-0.1,0.4-0.2,0.7-0.3,1.1c-0.1,0.4-0.2,0.7-0.3,1.1l-0.1,0.4c0,0.3-0.2,0.6-0.4,0.7c-0.2,0.2-0.5,0.2-0.7,0.2
			c-0.2,0-0.4-0.1-0.6-0.3C78.2,75.8,78.2,75.6,78.2,75.2z"/>
		<path fill="#FFFFFF" d="M113.6,67.8c0,0.1-0.1,0.1-0.1,0.2c-0.2,0.2-0.3,0.4-0.5,0.5c0.2-2.3,0.4-4.5,0.6-6.7
			c0.2-2.2,0.4-4.5,0.6-6.8c0.1-0.9,0.2-1.8,0.2-2.7c0.1-0.9,0.2-1.8,0.3-2.6c0-0.1,0.1-0.2,0.1-0.5c0.1-0.2,0.1-0.4,0.1-0.4
			c0.2-0.1,0.3-0.2,0.3-0.4c0.1-0.2,0.1-0.3,0-0.5c-0.1-0.2-0.2-0.4-0.3-0.4c-0.1-0.1-0.3-0.1-0.5,0c-0.2,0.1-0.4,0.1-0.5,0.3
			c-0.2,0.1-0.3,0.2-0.4,0.4c-0.5,0.5-0.9,1.2-1.2,1.9c-0.3,0.8-0.6,1.5-0.8,2.3c-0.1-0.6-0.3-1.1-0.6-1.6c-0.3-0.5-0.6-0.9-1.1-1.2
			c-0.9-0.5-1.7-0.7-2.6-0.5c-0.8,0.2-1.6,0.6-2.4,1.2c-0.7,0.6-1.4,1.4-2,2.3c-0.6,0.9-1,1.7-1.4,2.5c-0.9,2.1-1.5,4.3-1.8,6.7
			c-0.1,1.2-0.2,2.4-0.2,3.6c0,1.2,0.2,2.4,0.6,3.5c0.2,0.5,0.4,0.9,0.6,1.4c0.3,0.5,0.5,0.9,0.9,1.2c0.3,0.3,0.7,0.6,1.1,0.8
			c0.4,0.2,0.9,0.2,1.4,0.1c0.8-0.2,1.4-0.6,2-1.2c0.6-0.6,1.1-1.3,1.5-1.9c0.3-0.5,0.7-1.1,1-1.7c0.3-0.6,0.6-1.2,0.9-1.8
			c-0.1,1.2-0.3,2.3-0.4,3.5l-0.3,3.5c-0.6,0.5-1.1,1.1-1.6,1.6c-0.5,0.5-1.1,1.1-1.6,1.6c-1.2,1.3-2.4,2.7-3.5,4.1
			c-1.1,1.5-1.9,3.1-2.5,4.9c-0.3,0.8-0.5,1.6-0.7,2.5c-0.2,0.9-0.2,1.8-0.2,2.7c0,0.9,0.2,1.7,0.4,2.6c0.3,0.8,0.7,1.5,1.3,2.1
			c0.4,0.4,0.8,0.7,1.3,0.9c0.5,0.2,1,0.2,1.4,0.2c0.5,0,1-0.2,1.4-0.4c0.5-0.2,0.9-0.5,1.3-0.8c0.8-0.7,1.4-1.5,1.9-2.5
			c0.5-1,0.9-1.9,1.3-3c0.8-2.3,1.4-4.7,1.9-7.1c0.4-2.4,0.8-4.8,1.1-7.3l0.6-4.8c0.3-0.3,0.6-0.6,0.9-0.9
			C113.7,68.6,113.6,68.2,113.6,67.8z M108.3,79.9c-0.2,2-0.4,3.9-0.6,5.9c-0.1,1.1-0.3,2.2-0.5,3.3c-0.2,1.1-0.6,2.1-1.2,3.1
			c-0.2,0.4-0.5,0.8-0.9,1.2c-0.4,0.4-0.7,0.6-1.2,0.8c-0.4,0.2-0.8,0.3-1.3,0.3c-0.4,0-0.9-0.2-1.3-0.5c-0.4-0.3-0.8-0.8-1-1.3
			c-0.2-0.5-0.4-1.1-0.5-1.6c-0.1-0.6-0.1-1.2-0.1-1.8c0-0.6,0.1-1.2,0.2-1.7c0.2-1.1,0.5-2.3,1-3.3c0.4-1.1,0.9-2.1,1.6-3
			c0.9-1.4,1.9-2.7,3-3.9c1.1-1.2,2.3-2.4,3.4-3.5C108.7,75.9,108.5,77.9,108.3,79.9z M111.2,54.4c-0.3,1.2-0.5,2.4-0.7,3.7
			c-0.2,1.2-0.3,2.4-0.5,3.7l0,0c-0.1,0.2-0.2,0.4-0.2,0.6c-0.1,0.2-0.1,0.4-0.2,0.6c-0.4,1-0.7,2-1.2,3c-0.4,1-0.9,1.9-1.5,2.8
			c-0.2,0.3-0.4,0.6-0.7,1c-0.3,0.4-0.6,0.7-0.9,1c-0.3,0.3-0.7,0.4-1.1,0.5c-0.4,0.1-0.7-0.1-1-0.4c-0.2-0.3-0.4-0.6-0.5-1
			c-0.1-0.4-0.1-0.8-0.1-1.3c0-0.4,0.1-0.9,0.1-1.3c0.1-0.5,0.1-0.9,0.1-1.2c0.2-2.2,0.5-4.5,1-6.7c0.5-2.2,1.1-4.4,1.9-6.4
			c0.3-0.8,0.7-1.5,1.2-2.1c0.5-0.6,1.2-0.8,2-0.7c0.4,0.1,0.7,0.3,1,0.5c0.3,0.3,0.5,0.6,0.7,1c0.2,0.4,0.3,0.8,0.4,1.3
			c0.1,0.5,0.1,0.9,0.1,1.3L111.2,54.4z"/>
		<path fill="#FFFFFF" d="M111.8,70.3c0.4,0.2,0.8,0.2,1-0.1l1.8-2.1c0.6-0.8,1.3-1.5,2-2.2c0.7-0.7,1.4-1.4,2.2-2.1
			c0.7-0.6,1.4-1.2,2.2-1.7c0.8-0.6,1.7-1.1,2.6-1.5c0.2-0.1,0.5-0.2,0.9-0.2c0.4-0.1,0.8-0.1,1.2-0.1c0.4,0,0.8,0,1.1,0.1
			c0.3,0.1,0.6,0.3,0.7,0.6c0.2,0.3,0.3,0.7,0.3,1.1c1.1-0.3,2.3-0.4,3.7-0.4c-0.3-0.4-0.6-0.8-1-1.2c-0.5-0.5-1-0.9-1.6-1.1
			c-0.5-0.2-1.1-0.4-1.7-0.4c-0.6,0-1.2,0-1.8,0.1c-0.6,0.1-1.2,0.3-1.7,0.5c-1.4,0.5-2.7,1.1-3.8,1.9c-1.1,0.8-2.2,1.6-3.2,2.5
			c-1,0.9-1.9,1.8-2.7,2.8c-0.8,1-1.6,1.9-2.4,2.9C111.2,69.9,111.3,70.1,111.8,70.3z"/>
	</g>
</g>
</svg>
